# xmcd CD database file
#
# Track frame offsets:
#	150
#	53466
#	92832
#	137989
#	173929
#	213905
#
# Disc length: 3409 seconds
#
# Revision: 0
# Processed by: cddbd v1.4PL0 Copyright (c) Steve Scherf et al.
# Submitted via: CDex 1.50Beta7
#
DISCID=4e0d4f06
DTITLE=Jeff Richman - Live At The Baked Potato
DYEAR=2001
DGENRE=Jazz
TTITLE0=Kamaroon
TTITLE1=On The Trail
TTITLE2=Leap Of Faith
TTITLE3=Let This Be The One
TTITLE4=Star Cycle
TTITLE5=I Got Rhythm
EXTD=YEAR: 2001
EXTT0=
EXTT1=
EXTT2=
EXTT3=
EXTT4=
EXTT5=
PLAYORDER=
